# Blender v3.0.0 OBJ File: ''
# www.blender.org
mtllib hut.mtl
o Cube
v -1.000000 0.000000 1.000000
v -1.000000 2.000000 1.000000
v -1.000000 0.000000 -1.000000
v -1.000000 2.000000 -1.000000
v 1.000000 0.000000 1.000000
v 1.000000 2.000000 1.000000
v 1.000000 0.000000 -1.000000
v 1.000000 2.000000 -1.000000
v -1.312086 2.148528 1.312086
v -1.000000 0.415420 0.584580
v -1.000000 1.584580 0.584580
v -1.000000 1.584580 -0.584580
v -1.000000 0.415420 -0.584580
v -0.584580 0.415420 -1.000000
v -0.584580 1.584580 -1.000000
v 0.584580 1.584580 -1.000000
v 0.584580 0.415420 -1.000000
v 1.000000 0.415420 -0.584580
v 1.000000 1.584580 -0.584580
v 1.000000 1.584580 0.584580
v 1.000000 0.415420 0.584580
v 0.584580 0.415420 1.000000
v 0.584580 1.584580 1.000000
v -0.584580 1.584580 1.000000
v -0.584580 0.415420 1.000000
v -0.917997 0.415420 0.584580
v -0.917997 1.584580 0.584580
v -0.917997 0.415420 -0.584580
v -0.917997 1.584580 -0.584580
v -0.584580 1.584580 -0.917997
v -0.584580 0.415420 -0.917997
v 0.584580 0.415420 -0.917997
v 0.584580 1.584580 -0.917997
v 0.917997 1.584580 -0.584580
v 0.917997 0.415420 -0.584580
v 0.917997 0.415420 0.584580
v 0.917997 1.584580 0.584580
v 0.584580 1.584580 0.917997
v 0.584580 0.415420 0.917997
v -0.584580 0.415420 0.917997
v -0.584580 1.584580 0.917997
v -1.312086 2.000000 1.312086
v -1.312086 2.000000 -1.312086
v -1.312086 2.148528 -1.312086
v 1.312086 2.148528 -1.312086
v 1.312086 2.000000 -1.312086
v 1.312086 2.000000 1.312086
v 1.312086 2.148528 1.312086
v 0.000000 3.335149 0.000000
v -1.000000 0.833333 1.000000
v -1.000000 1.166667 1.000000
v -1.000000 1.166667 -1.000000
v -1.000000 0.833333 -1.000000
v 1.000000 1.166667 -1.000000
v 1.000000 0.833333 -1.000000
v 1.000000 1.166667 1.000000
v 1.000000 0.833333 1.000000
v -1.000000 0.902570 0.584580
v -1.000000 1.097430 0.584580
v -1.000000 1.097430 -0.584580
v -1.000000 0.902570 -0.584580
v -0.584580 1.097430 -1.000000
v -0.584580 0.902570 -1.000000
v 0.584580 1.097430 -1.000000
v 0.584580 0.902570 -1.000000
v 1.000000 1.097430 -0.584580
v 1.000000 0.902570 -0.584580
v 1.000000 1.097430 0.584580
v 1.000000 0.902570 0.584580
v 0.584580 1.097430 1.000000
v 0.584580 0.902570 1.000000
v -0.584580 0.902570 1.000000
v -0.584580 1.097430 1.000000
v -0.917997 0.902570 0.584580
v -0.917997 1.097430 0.584580
v -0.917997 1.097430 -0.584580
v -0.917997 0.902570 -0.584580
v -0.584580 1.097430 -0.917997
v -0.584580 0.902570 -0.917997
v 0.584580 1.097430 -0.917997
v 0.584580 0.902570 -0.917997
v 0.917997 1.097430 -0.584580
v 0.917997 0.902570 -0.584580
v 0.917997 1.097430 0.584580
v 0.917997 0.902570 0.584580
v 0.584580 1.097430 0.917997
v 0.584580 0.902570 0.917997
v -0.584580 0.902570 0.917997
v -0.584580 1.097430 0.917997
v -1.000000 0.000000 -0.166667
v -1.000000 0.000000 0.166667
v -1.000000 2.000000 0.166667
v -1.000000 2.000000 -0.166667
v 1.000000 0.000000 0.166667
v 1.000000 0.000000 -0.166667
v 1.000000 2.000000 -0.166667
v 1.000000 2.000000 0.166667
v -1.312086 2.000000 0.218681
v -1.312086 2.000000 -0.218681
v 1.312086 2.000000 -0.218681
v 1.312086 2.000000 0.218681
v -1.000000 0.415420 -0.097430
v -1.000000 0.415420 0.097430
v -1.000000 1.584580 0.097430
v -1.000000 1.584580 -0.097430
v 1.000000 0.415420 0.097430
v 1.000000 0.415420 -0.097430
v 1.000000 1.584580 -0.097430
v 1.000000 1.584580 0.097430
v -0.917997 0.415420 -0.097430
v -0.917997 0.415420 0.097430
v -0.917997 1.584580 0.097430
v -0.917997 1.584580 -0.097430
v 0.917997 0.415420 0.097430
v 0.917997 0.415420 -0.097430
v 0.917997 1.584580 -0.097430
v 0.917997 1.584580 0.097430
v -1.312086 2.148528 0.218681
v -1.312086 2.148528 -0.218681
v 1.312086 2.148528 -0.218681
v 1.312086 2.148528 0.218681
v 0.917997 0.902570 -0.097430
v 0.917997 0.902570 0.097430
v 0.917997 1.097430 -0.097430
v 0.917997 1.097430 0.097430
v -0.917997 0.902570 0.097430
v -0.917997 0.902570 -0.097430
v -0.917997 1.097430 0.097430
v -0.917997 1.097430 -0.097430
v 0.166667 0.000000 -1.000000
v -0.166667 0.000000 -1.000000
v -0.166667 2.000000 -1.000000
v 0.166667 2.000000 -1.000000
v -0.166667 0.000000 1.000000
v 0.166667 0.000000 1.000000
v 0.166667 2.000000 1.000000
v -0.166667 2.000000 1.000000
v -0.218681 2.148528 -1.312086
v 0.218681 2.148528 -1.312086
v 0.218681 2.000000 1.312086
v -0.218681 2.000000 1.312086
v 0.097430 0.415420 -1.000000
v -0.097430 0.415420 -1.000000
v -0.097430 1.584580 -1.000000
v 0.097430 1.584580 -1.000000
v -0.097430 0.415420 1.000000
v 0.097430 0.415420 1.000000
v 0.097430 1.584580 1.000000
v -0.097430 1.584580 1.000000
v 0.097430 0.415420 -0.917997
v -0.097430 0.415420 -0.917997
v -0.097430 1.584580 -0.917997
v 0.097430 1.584580 -0.917997
v -0.097430 0.415420 0.917997
v 0.097430 0.415420 0.917997
v 0.097430 1.584580 0.917997
v -0.097430 1.584580 0.917997
v -0.218681 2.000000 -1.312086
v 0.218681 2.000000 -1.312086
v 0.218681 2.148528 1.312086
v -0.218681 2.148528 1.312086
v 0.097430 0.902570 0.917997
v -0.097430 0.902570 0.917997
v 0.097430 1.097430 0.917997
v -0.097430 1.097430 0.917997
v -0.097430 0.902570 -0.917997
v 0.097430 0.902570 -0.917997
v -0.097430 1.097430 -0.917997
v 0.097430 1.097430 -0.917997
v 0.166667 0.000000 -0.166667
v -0.166667 0.000000 -0.166667
v 0.166667 0.000000 0.166667
v -0.166667 0.000000 0.166667
v -0.950932 0.902570 0.584580
v -0.950932 1.097430 0.584580
v -0.950932 1.097430 -0.584580
v -0.950932 0.902570 -0.584580
v -0.584580 1.097430 -0.950932
v -0.584580 0.902570 -0.950932
v 0.584580 1.097430 -0.950932
v 0.584580 0.902570 -0.950932
v 0.950932 1.097430 -0.584580
v 0.950932 0.902570 -0.584580
v 0.950932 1.097430 0.584580
v 0.950932 0.902570 0.584580
v 0.584580 1.097430 0.950932
v 0.584580 0.902570 0.950932
v -0.584580 0.902570 0.950932
v -0.584580 1.097430 0.950932
v -0.097430 0.902570 0.950932
v -0.097430 1.097430 0.950932
v 0.950932 0.902570 0.097430
v 0.950932 1.097430 0.097430
v 0.097430 0.902570 -0.950932
v 0.097430 1.097430 -0.950932
v -0.950932 0.902570 -0.097430
v -0.950932 1.097430 -0.097430
v -0.950932 0.415420 -0.097430
v -0.950932 0.415420 0.097430
v -0.950932 1.584580 0.097430
v -0.950932 1.584580 -0.097430
v 0.950932 0.415420 0.097430
v 0.950932 0.415420 -0.097430
v 0.950932 1.584580 -0.097430
v 0.950932 1.584580 0.097430
v 0.950932 0.902570 -0.097430
v 0.950932 1.097430 -0.097430
v -0.950932 0.902570 0.097430
v -0.950932 1.097430 0.097430
v 0.097430 0.415420 -0.950932
v -0.097430 0.415420 -0.950932
v -0.097430 1.584580 -0.950932
v 0.097430 1.584580 -0.950932
v -0.097430 0.415420 0.950932
v 0.097430 0.415420 0.950932
v 0.097430 1.584580 0.950932
v -0.097430 1.584580 0.950932
v 0.097430 0.902570 0.950932
v 0.097430 1.097430 0.950932
v -0.097430 0.902570 -0.950932
v -0.097430 1.097430 -0.950932
v -0.247591 2.188303 -0.589352
v -0.247591 3.017621 -0.589352
v -0.247591 2.188303 -1.187922
v -0.247591 3.017621 -1.187922
v 0.350979 2.188303 -0.589352
v 0.350979 3.017621 -0.589352
v 0.350979 2.188303 -1.187922
v 0.350979 3.017621 -1.187922
v 0.307265 3.017621 -1.144208
v -0.203877 3.017621 -1.144208
v -0.203877 3.017621 -0.633066
v 0.307265 3.017621 -0.633066
v -0.203877 3.822263 -1.144208
v 0.307265 3.822263 -1.144208
v 0.307265 3.822263 -0.633066
v -0.203877 3.822263 -0.633066
v 0.209422 3.822263 -1.046365
v -0.106035 3.822263 -1.046365
v -0.106035 3.822263 -0.730909
v 0.209422 3.822263 -0.730909
v -0.106035 3.399231 -1.046365
v 0.209422 3.399231 -1.046365
v 0.209422 3.399231 -0.730909
v -0.106035 3.399231 -0.730909
vt 0.426927 0.600642
vt 0.426927 0.551927
vt 0.426927 0.551927
vt 0.426927 0.600642
vt 0.573073 0.149358
vt 0.573073 0.198073
vt 0.573073 0.198073
vt 0.573073 0.149358
vt 0.524358 0.801928
vt 0.573073 0.801928
vt 0.573073 0.801928
vt 0.524357 0.801928
vt 0.426927 0.350643
vt 0.426927 0.301927
vt 0.426927 0.301927
vt 0.426927 0.350642
vt 0.291667 0.666667
vt 0.375000 0.666667
vt 0.375000 0.750000
vt 0.291667 0.750000
vt 0.625000 0.083333
vt 0.625000 0.000000
vt 0.625000 0.000000
vt 0.625000 0.083333
vt 0.625000 0.500000
vt 0.625000 0.416667
vt 0.625000 0.333333
vt 0.625000 0.250000
vt 0.625000 0.500000
vt 0.625000 0.833333
vt 0.625000 0.750000
vt 0.625000 0.750000
vt 0.625000 0.833333
vt 0.625000 0.333333
vt 0.625000 0.250000
vt 0.625000 0.250000
vt 0.625000 0.333333
vt 0.625000 0.583333
vt 0.625000 0.500000
vt 0.625000 0.500000
vt 0.625000 0.583333
vt 0.625000 0.750000
vt 0.625000 0.666667
vt 0.625000 0.583333
vt 0.625000 0.750000
vt 0.625000 0.166667
vt 0.625000 0.083333
vt 0.625000 0.000000
vt 0.625000 0.250000
vt 0.625000 1.000000
vt 0.625000 0.916667
vt 0.625000 0.833333
vt 0.625000 1.000000
vt 0.541667 0.000000
vt 0.573073 0.051927
vt 0.524357 0.051927
vt 0.625000 0.166667
vt 0.458333 0.250000
vt 0.375000 0.250000
vt 0.426927 0.198073
vt 0.475642 0.198073
vt 0.375000 0.083333
vt 0.375000 0.000000
vt 0.426927 0.051927
vt 0.426927 0.100642
vt 0.541667 0.250000
vt 0.573073 0.301927
vt 0.524357 0.301927
vt 0.625000 0.416667
vt 0.573073 0.448073
vt 0.573072 0.399357
vt 0.458333 0.500000
vt 0.375000 0.500000
vt 0.426927 0.448073
vt 0.475642 0.448073
vt 0.375000 0.333333
vt 0.541667 0.500000
vt 0.573073 0.551927
vt 0.524357 0.551927
vt 0.625000 0.666667
vt 0.573073 0.698073
vt 0.573072 0.649357
vt 0.458333 0.750000
vt 0.426927 0.698073
vt 0.475642 0.698072
vt 0.375000 0.583333
vt 0.541667 0.750000
vt 0.625000 0.916667
vt 0.625000 1.000000
vt 0.573073 0.948073
vt 0.573072 0.899357
vt 0.458333 1.000000
vt 0.375000 1.000000
vt 0.426927 0.948073
vt 0.475642 0.948072
vt 0.375000 0.833333
vt 0.426927 0.801928
vt 0.426927 0.850642
vt 0.524357 0.149358
vt 0.524357 0.198073
vt 0.524357 0.399357
vt 0.573073 0.399357
vt 0.573073 0.448073
vt 0.524357 0.448073
vt 0.524357 0.649357
vt 0.573073 0.649357
vt 0.573073 0.698073
vt 0.524357 0.698073
vt 0.524357 0.899358
vt 0.573073 0.899358
vt 0.573073 0.948073
vt 0.524357 0.948073
vt 0.426927 0.801928
vt 0.426927 0.850643
vt 0.426927 0.198073
vt 0.475642 0.198073
vt 0.426927 0.448073
vt 0.475642 0.448073
vt 0.426927 0.698073
vt 0.475642 0.698073
vt 0.426927 0.948073
vt 0.475642 0.948072
vt 0.573073 0.051927
vt 0.524357 0.051927
vt 0.573073 0.301927
vt 0.524357 0.301927
vt 0.426927 0.051927
vt 0.426927 0.100642
vt 0.573073 0.551927
vt 0.524357 0.551927
vt 0.000000 0.000000
vt 0.000000 0.000000
vt 0.000000 0.000000
vt 0.000000 0.000000
vt 0.000000 0.000000
vt 0.000000 0.000000
vt 0.000000 0.000000
vt 0.000000 0.000000
vt 0.000000 0.000000
vt 0.000000 0.000000
vt 0.000000 0.000000
vt 0.000000 0.000000
vt 0.000000 0.000000
vt 0.000000 0.000000
vt 0.000000 0.000000
vt 0.000000 0.000000
vt 0.475643 0.551927
vt 0.475642 0.551927
vt 0.475643 0.301927
vt 0.475642 0.301927
vt 0.475643 0.051927
vt 0.475642 0.051927
vt 0.524358 0.948073
vt 0.524358 0.698073
vt 0.524358 0.448073
vt 0.524358 0.198073
vt 0.426927 0.899357
vt 0.475642 0.899357
vt 0.475642 0.850643
vt 0.475642 0.801928
vt 0.475642 0.801928
vt 0.475642 0.850643
vt 0.426927 0.649357
vt 0.475642 0.649357
vt 0.524357 0.301927
vt 0.475642 0.301927
vt 0.426927 0.399357
vt 0.475642 0.399358
vt 0.524357 0.600642
vt 0.573073 0.600642
vt 0.573073 0.600642
vt 0.524357 0.600642
vt 0.426927 0.149358
vt 0.475642 0.149358
vt 0.475642 0.100642
vt 0.475642 0.100642
vt 0.426927 0.100642
vt 0.541667 1.000000
vt 0.475642 0.801927
vt 0.458333 0.000000
vt 0.524357 0.948073
vt 0.524357 0.899358
vt 0.475642 0.899357
vt 0.475642 0.948072
vt 0.475642 0.198073
vt 0.524357 0.198073
vt 0.573073 0.649357
vt 0.524357 0.399357
vt 0.573073 0.399357
vt 0.475642 0.600642
vt 0.000000 0.000000
vt 0.000000 0.000000
vt 0.000000 0.000000
vt 0.000000 0.000000
vt 0.426927 0.149358
vt 0.573073 0.600642
vt 0.426927 0.899357
vt 0.573073 0.100642
vt 0.524357 0.100642
vt 0.524357 0.051927
vt 0.475642 0.051927
vt 0.426927 0.649357
vt 0.375000 0.166667
vt 0.573072 0.100642
vt 0.625000 0.666667
vt 0.625000 0.166667
vt 0.291667 0.500000
vt 0.291667 0.583333
vt 0.125000 0.583333
vt 0.208333 0.583333
vt 0.208333 0.666667
vt 0.125000 0.666667
vt 0.125000 0.500000
vt 0.208333 0.500000
vt 0.524357 0.350642
vt 0.573073 0.350643
vt 0.573073 0.350643
vt 0.524357 0.350642
vt 0.426927 0.600642
vt 0.426927 0.649357
vt 0.475642 0.350643
vt 0.426927 0.850643
vt 0.524357 0.100642
vt 0.573073 0.850643
vt 0.573073 0.899358
vt 0.573073 0.850643
vt 0.000000 0.000000
vt 0.000000 0.000000
vt 0.000000 0.000000
vt 0.000000 0.000000
vt 0.573073 0.850643
vt 0.426927 0.899358
vt 0.573073 0.350643
vt 0.524357 0.850643
vt 0.524357 0.801928
vt 0.524357 0.850643
vt 0.375000 0.916667
vt 0.375000 0.416667
vt 0.426927 0.399357
vt 0.625000 0.416667
vt 0.625000 0.916667
vt 0.625000 1.000000
vt 0.208333 0.750000
vt 0.125000 0.750000
vt 0.475642 0.649357
vt 0.524357 0.649357
vt 0.524357 0.698073
vt 0.475642 0.698073
vt 0.475642 0.399358
vt 0.524357 0.448073
vt 0.475642 0.448073
vt 0.475642 0.149358
vt 0.524357 0.149358
vt 0.426927 0.149358
vt 0.475642 0.551927
vt 0.524357 0.551927
vt 0.475642 0.600642
vt 0.573073 0.100642
vt 0.573073 0.149358
vt 0.475642 0.350643
vt 0.426927 0.350642
vt 0.426927 0.399357
vt 0.375000 0.000000
vt 0.625000 0.000000
vt 0.625000 0.250000
vt 0.375000 0.250000
vt 0.625000 0.500000
vt 0.375000 0.500000
vt 0.625000 0.750000
vt 0.375000 0.750000
vt 0.625000 1.000000
vt 0.375000 1.000000
vt 0.125000 0.500000
vt 0.125000 0.750000
vt 0.856742 0.731742
vt 0.643258 0.731742
vt 0.643258 0.731742
vt 0.856742 0.731742
vt 0.875000 0.500000
vt 0.856742 0.518258
vt 0.643258 0.518258
vt 0.875000 0.750000
vt 0.815877 0.559123
vt 0.815877 0.690877
vt 0.815877 0.690877
vt 0.815877 0.559123
vt 0.643258 0.518258
vt 0.856742 0.518258
vt 0.684123 0.559123
vt 0.684123 0.690877
vt 0.684123 0.559123
vt 0.684123 0.690877
vn 0.0000 1.0000 0.0000
vn 0.0000 -1.0000 0.0000
vn -1.0000 0.0000 0.0000
vn 0.0000 0.7417 -0.6708
vn 0.6708 0.7417 0.0000
vn -0.6708 0.7417 0.0000
vn 0.0000 0.7417 0.6708
vn 0.0000 0.0000 -1.0000
vn 1.0000 0.0000 0.0000
vn 0.0000 0.0000 1.0000
usemtl None
s off
f 107/1/1 18/2/1 35/3/1 115/4/1
f 105/5/2 12/6/2 29/7/2 113/8/2
f 70/9/3 23/10/3 38/11/3 86/12/3
f 143/13/1 14/14/1 31/15/1 151/16/1
f 172/17/2 94/18/2 5/19/2 135/20/2
f 92/21/2 2/22/2 42/23/2 98/24/2
f 45/25/4 139/26/4 138/27/4 44/28/4 49/29/4
f 136/30/2 6/31/2 47/32/2 140/33/2
f 132/34/2 4/35/2 43/36/2 158/37/2
f 96/38/2 8/39/2 46/40/2 100/41/2
f 48/42/5 121/43/5 120/44/5 45/25/5 49/45/5
f 44/28/6 119/46/6 118/47/6 9/48/6 49/49/6
f 9/50/7 161/51/7 160/52/7 48/42/7 49/53/7
f 51/54/3 2/22/3 11/55/3 59/56/3
f 93/57/3 4/35/3 12/6/3 105/5/3
f 53/58/3 3/59/3 13/60/3 61/61/3
f 91/62/3 1/63/3 10/64/3 103/65/3
f 52/66/8 4/35/8 15/67/8 62/68/8
f 133/69/8 8/39/8 16/70/8 145/71/8
f 55/72/8 7/73/8 17/74/8 65/75/8
f 131/76/8 3/59/8 14/14/8 143/13/8
f 54/77/9 8/39/9 19/78/9 66/79/9
f 97/80/9 6/31/9 20/81/9 109/82/9
f 57/83/9 5/19/9 21/84/9 69/85/9
f 95/86/9 7/73/9 18/2/9 107/1/9
f 56/87/10 6/31/10 23/10/10 70/9/10
f 137/88/10 2/89/10 24/90/10 149/91/10
f 50/92/10 1/93/10 25/94/10 72/95/10
f 135/96/10 5/19/10 22/97/10 147/98/10
f 129/99/3 113/8/3 29/7/3 76/100/3
f 169/101/8 153/102/8 33/103/8 80/104/8
f 125/105/9 117/106/9 37/107/9 84/108/9
f 165/109/10 157/110/10 41/111/10 89/112/10
f 145/71/2 16/70/2 33/103/2 153/102/2
f 147/98/1 22/97/1 39/113/1 155/114/1
f 61/61/10 13/60/10 28/115/10 77/116/10
f 109/82/2 20/81/2 37/107/2 117/106/2
f 65/75/3 17/74/3 32/117/3 81/118/3
f 149/91/2 24/90/2 41/111/2 157/110/2
f 69/85/8 21/84/8 36/119/8 85/120/8
f 72/95/9 25/94/9 40/121/9 88/122/9
f 59/56/8 11/55/8 27/123/8 75/124/8
f 62/68/9 15/67/9 30/125/9 78/126/9
f 103/65/1 10/64/1 26/127/1 111/128/1
f 66/79/10 19/78/10 34/129/10 82/130/10
f 140/131/10 47/132/10 48/133/10 160/134/10
f 100/135/9 46/136/9 45/137/9 120/138/9
f 158/139/8 43/140/8 44/141/8 138/142/8
f 98/143/3 42/144/3 9/145/3 118/146/3
f 18/2/10 67/147/10 83/148/10 35/3/10
f 67/147/10 66/79/10 82/130/10 83/148/10
f 14/14/9 63/149/9 79/150/9 31/15/9
f 63/149/9 62/68/9 78/126/9 79/150/9
f 10/64/8 58/151/8 74/152/8 26/127/8
f 58/151/8 59/56/8 75/124/8 74/152/8
f 24/90/9 73/153/9 89/112/9 41/111/9
f 73/153/9 72/95/9 88/122/9 89/112/9
f 20/81/8 68/154/8 84/108/8 37/107/8
f 68/154/8 69/85/8 85/120/8 84/108/8
f 16/70/3 64/155/3 80/104/3 33/103/3
f 64/155/3 65/75/3 81/118/3 80/104/3
f 12/6/10 60/156/10 76/100/10 29/7/10
f 60/156/10 61/61/10 77/116/10 76/100/10
f 154/157/10 163/158/10 88/122/10 40/121/10
f 162/159/2 87/160/2 187/161/2 218/162/2
f 114/163/9 123/164/9 85/120/9 36/119/9
f 79/150/3 78/126/3 178/165/3 179/166/3
f 150/167/8 167/168/8 81/118/8 32/117/8
f 124/169/8 116/170/8 204/171/8 207/172/8
f 110/173/3 127/174/3 77/116/3 28/115/3
f 111/128/10 126/175/10 208/176/10 199/177/10
f 2/89/10 51/178/10 73/153/10 24/90/10
f 51/178/10 50/92/10 72/95/10 73/153/10
f 5/19/10 57/83/10 71/179/10 22/97/10
f 57/83/10 56/87/10 70/9/10 71/179/10
f 6/31/9 56/87/9 68/154/9 20/81/9
f 56/87/9 57/83/9 69/85/9 68/154/9
f 7/73/9 55/72/9 67/147/9 18/2/9
f 55/72/9 54/77/9 66/79/9 67/147/9
f 8/39/8 54/77/8 64/155/8 16/70/8
f 54/77/8 55/72/8 65/75/8 64/155/8
f 3/59/8 53/58/8 63/149/8 14/14/8
f 53/58/8 52/66/8 62/68/8 63/149/8
f 4/35/3 52/66/3 60/156/3 12/6/3
f 52/66/3 53/58/3 61/61/3 60/156/3
f 1/63/3 50/180/3 58/151/3 10/64/3
f 50/180/3 51/54/3 59/56/3 58/151/3
f 22/97/3 71/179/3 87/160/3 39/113/3
f 71/179/3 70/9/3 86/12/3 87/160/3
f 165/109/1 89/112/1 189/181/1 191/182/1
f 88/122/2 163/158/2 190/183/2 188/184/2
f 26/127/3 74/152/3 126/175/3 111/128/3
f 76/100/8 77/116/8 177/185/8 176/186/8
f 116/170/1 117/106/1 205/187/1 204/171/1
f 153/102/9 169/101/9 195/188/9 213/189/9
f 35/3/9 83/148/9 122/190/9 115/4/9
f 89/112/3 88/122/3 188/184/3 189/181/3
f 43/140/3 99/191/3 119/192/3 44/141/3
f 99/191/3 98/143/3 118/146/3 119/192/3
f 47/132/9 101/193/9 121/194/9 48/133/9
f 101/193/9 100/135/9 120/138/9 121/194/9
f 13/60/1 102/195/1 110/173/1 28/115/1
f 102/195/1 103/65/1 111/128/1 110/173/1
f 19/78/2 108/196/2 116/170/2 34/129/2
f 108/196/2 109/82/2 117/106/2 116/170/2
f 82/130/9 34/129/9 116/170/9 124/169/9
f 163/158/3 154/157/3 214/197/3 190/183/3
f 75/124/3 27/123/3 112/198/3 128/199/3
f 74/152/10 75/124/10 175/200/10 174/201/10
f 5/19/9 94/18/9 106/202/9 21/84/9
f 94/18/9 95/86/9 107/1/9 106/202/9
f 8/39/9 96/38/9 108/196/9 19/78/9
f 96/38/9 97/80/9 109/82/9 108/196/9
f 3/59/3 90/203/3 102/195/3 13/60/3
f 90/203/3 91/62/3 103/65/3 102/195/3
f 2/22/3 92/21/3 104/204/3 11/55/3
f 92/21/3 93/57/3 105/5/3 104/204/3
f 6/31/2 97/80/2 101/205/2 47/32/2
f 97/80/2 96/38/2 100/41/2 101/205/2
f 4/35/2 93/57/2 99/206/2 43/36/2
f 93/57/2 92/21/2 98/24/2 99/206/2
f 130/207/2 7/73/2 95/86/2 170/208/2
f 170/208/2 95/86/2 94/18/2 172/17/2
f 11/55/2 104/204/2 112/198/2 27/123/2
f 104/204/2 105/5/2 113/8/2 112/198/2
f 21/84/1 106/202/1 114/163/1 36/119/1
f 106/202/1 107/1/1 115/4/1 114/163/1
f 90/209/2 171/210/2 173/211/2 91/212/2
f 171/210/2 170/208/2 172/17/2 173/211/2
f 3/213/2 131/214/2 171/210/2 90/209/2
f 131/214/2 130/207/2 170/208/2 171/210/2
f 168/215/3 152/216/3 212/217/3 221/218/3
f 114/163/2 115/4/2 203/219/2 202/220/2
f 31/15/8 79/150/8 166/221/8 151/16/8
f 155/114/9 162/159/9 218/162/9 215/222/9
f 75/124/1 128/199/1 209/223/1 175/200/1
f 156/224/1 157/110/1 217/225/1 216/226/1
f 39/113/10 87/160/10 162/159/10 155/114/10
f 157/110/3 165/109/3 191/182/3 217/225/3
f 46/136/8 159/227/8 139/228/8 45/137/8
f 159/227/8 158/139/8 138/142/8 139/228/8
f 42/144/10 141/229/10 161/230/10 9/145/10
f 141/229/10 140/131/10 160/134/10 161/230/10
f 23/10/2 148/231/2 156/224/2 38/11/2
f 148/231/2 149/91/2 157/110/2 156/224/2
f 25/94/1 146/232/1 154/157/1 40/121/1
f 146/232/1 147/98/1 155/114/1 154/157/1
f 15/67/2 144/233/2 152/216/2 30/125/2
f 144/233/2 145/71/2 153/102/2 152/216/2
f 86/12/10 38/11/10 156/224/10 164/234/10
f 87/160/9 86/12/9 186/235/9 187/161/9
f 78/126/8 30/125/8 152/216/8 168/215/8
f 164/234/9 156/224/9 216/226/9 219/236/9
f 1/93/10 134/237/10 146/232/10 25/94/10
f 134/237/10 135/96/10 147/98/10 146/232/10
f 6/31/10 136/30/10 148/231/10 23/10/10
f 136/30/10 137/88/10 149/91/10 148/231/10
f 7/73/8 130/238/8 142/239/8 17/74/8
f 130/238/8 131/76/8 143/13/8 142/239/8
f 4/35/8 132/34/8 144/233/8 15/67/8
f 132/34/8 133/69/8 145/71/8 144/233/8
f 8/39/2 133/69/2 159/240/2 46/40/2
f 133/69/2 132/34/2 158/37/2 159/240/2
f 2/89/2 137/88/2 141/241/2 42/242/2
f 137/88/2 136/30/2 140/33/2 141/241/2
f 91/212/2 173/211/2 134/243/2 1/244/2
f 173/211/2 172/17/2 135/20/2 134/243/2
f 17/74/1 142/239/1 150/167/1 32/117/1
f 142/239/1 143/13/1 151/16/1 150/167/1
f 190/183/10 191/182/10 189/181/10 188/184/10
f 192/245/9 193/246/9 184/247/9 185/248/9
f 194/249/8 195/188/8 180/250/8 181/251/8
f 196/252/3 197/253/3 176/186/3 177/185/3
f 174/201/3 175/200/3 209/223/3 208/176/3
f 208/176/3 209/223/3 197/253/3 196/252/3
f 199/177/3 208/176/3 196/252/3 198/254/3
f 183/255/9 182/256/9 207/172/9 206/257/9
f 206/257/9 207/172/9 193/246/9 192/245/9
f 203/219/9 206/257/9 192/245/9 202/220/9
f 207/172/9 204/171/9 205/187/9 193/246/9
f 209/223/3 200/258/3 201/259/3 197/253/3
f 179/166/8 178/165/8 221/218/8 220/260/8
f 220/260/8 221/218/8 195/188/8 194/249/8
f 211/261/8 220/260/8 194/249/8 210/262/8
f 187/161/10 186/235/10 219/236/10 218/162/10
f 218/162/10 219/236/10 191/182/10 190/183/10
f 215/222/10 218/162/10 190/183/10 214/197/10
f 219/236/10 216/226/10 217/225/10 191/182/10
f 221/218/8 212/217/8 213/189/8 195/188/8
f 127/174/8 110/173/8 198/254/8 196/252/8
f 85/120/2 123/164/2 192/245/2 185/248/2
f 117/106/10 125/105/10 193/246/10 205/187/10
f 125/105/1 84/108/1 184/247/1 193/246/1
f 128/199/10 112/198/10 200/258/10 209/223/10
f 80/104/9 81/118/9 181/251/9 180/250/9
f 86/12/1 164/234/1 219/236/1 186/235/1
f 81/118/2 167/168/2 194/249/2 181/251/2
f 150/167/2 151/16/2 211/261/2 210/262/2
f 122/190/2 83/148/2 183/255/2 206/257/2
f 113/8/8 129/99/8 197/253/8 201/259/8
f 115/4/8 122/190/8 206/257/8 203/219/8
f 169/101/1 80/104/1 180/250/1 195/188/1
f 83/148/8 82/130/8 182/256/8 183/255/8
f 166/221/2 79/150/2 179/166/2 220/260/2
f 123/164/10 114/163/10 202/220/10 192/245/10
f 77/116/2 127/174/2 196/252/2 177/185/2
f 152/216/1 153/102/1 213/189/1 212/217/1
f 82/130/1 124/169/1 207/172/1 182/256/1
f 151/16/3 166/221/3 220/260/3 211/261/3
f 110/173/2 111/128/2 199/177/2 198/254/2
f 129/99/1 76/100/1 176/186/1 197/253/1
f 167/168/9 150/167/9 210/262/9 194/249/9
f 84/108/10 85/120/10 185/248/10 184/247/10
f 78/126/1 168/215/1 221/218/1 178/165/1
f 154/157/2 155/114/2 215/222/2 214/197/2
f 126/175/2 74/152/2 174/201/2 208/176/2
f 112/198/1 113/8/1 201/259/1 200/258/1
f 222/263/3 223/264/3 225/265/3 224/266/3
f 224/266/8 225/265/8 229/267/8 228/268/8
f 228/268/9 229/267/9 227/269/9 226/270/9
f 226/270/10 227/269/10 223/271/10 222/272/10
f 224/273/2 228/268/2 226/270/2 222/274/2
f 232/275/10 233/276/10 236/277/10 237/278/10
f 229/267/1 225/279/1 231/280/1 230/281/1
f 225/279/1 223/282/1 232/275/1 231/280/1
f 223/282/1 227/269/1 233/276/1 232/275/1
f 227/269/1 229/267/1 230/281/1 233/276/1
f 239/283/9 240/284/9 245/285/9 242/286/9
f 233/276/9 230/281/9 235/287/9 236/277/9
f 231/280/3 232/275/3 237/278/3 234/288/3
f 230/281/8 231/280/8 234/288/8 235/287/8
f 235/287/1 234/288/1 239/283/1 238/289/1
f 234/288/1 237/278/1 240/284/1 239/283/1
f 237/278/1 236/277/1 241/290/1 240/284/1
f 236/277/1 235/287/1 238/289/1 241/290/1
f 243/291/1 242/286/1 245/285/1 244/292/1
f 238/289/10 239/283/10 242/286/10 243/291/10
f 240/284/8 241/290/8 244/292/8 245/285/8
f 241/290/3 238/289/3 243/291/3 244/292/3
